<?xml version="1.0" encoding="utf-8"?>
<!-- Generator: Adobe Illustrator 21.1.0, SVG Export Plug-In . SVG Version: 6.00 Build 0)  -->
<svg version="1.1" id="Layer_1" xmlns="http://www.w3.org/2000/svg" xmlns:xlink="http://www.w3.org/1999/xlink" x="0px" y="0px"
	 viewBox="0 0 72 72" style="enable-background:new 0 0 72 72;" xml:space="preserve">
<style type="text/css">
	.st0{fill:#333333;}
	.st1{fill:#FFFFFF;}
	.st2{fill:#BA2025;}
</style>
<path class="st0" d="M15.1,49.3c-7.4,0-13.5-6-13.5-13.5c0-7.4,6-13.5,13.5-13.5c7.4,0,13.5,6,13.5,13.5
	C28.6,43.2,22.5,49.3,15.1,49.3"/>
<path class="st1" d="M15.1,25.2C9.3,25.2,4.5,30,4.5,35.8c0,5.8,4.7,10.5,10.5,10.5c5.8,0,10.5-4.7,10.5-10.5
	C25.6,30,20.9,25.2,15.1,25.2"/>
<path class="st0" d="M15.1,43.6c-4.3,0-7.8-3.5-7.8-7.8c0-4.3,3.5-7.8,7.8-7.8c4.3,0,7.8,3.5,7.8,7.8C22.9,40.1,19.4,43.6,15.1,43.6
	"/>
<path class="st1" d="M15.1,30.9c-2.7,0-4.9,2.2-4.9,4.9c0,2.7,2.2,4.9,4.9,4.9c2.7,0,4.9-2.2,4.9-4.9C20,33.1,17.8,30.9,15.1,30.9"
	/>
<path class="st0" d="M58.5,27C51,27,45,20.9,45,13.5C45,6,51,0,58.5,0c7.4,0,13.5,6,13.5,13.5C71.9,20.9,65.9,27,58.5,27"/>
<path class="st1" d="M58.5,2.9c-5.8,0-10.5,4.7-10.5,10.5c0,5.8,4.7,10.5,10.5,10.5C64.3,24,69,19.3,69,13.5
	C69,7.7,64.3,2.9,58.5,2.9"/>
<path class="st0" d="M64.8,13.5c0,3.5-2.9,6.4-6.4,6.4c-3.5,0-6.4-2.9-6.4-6.4c0-3.5,2.9-6.4,6.4-6.4C62,7.1,64.8,10,64.8,13.5"/>
<path class="st0" d="M58.5,71.6c-7.4,0-13.5-6-13.5-13.5c0-7.4,6-13.5,13.5-13.5c7.4,0,13.5,6,13.5,13.5
	C71.9,65.5,65.9,71.6,58.5,71.6"/>
<path class="st1" d="M58.5,47.6c-5.8,0-10.5,4.7-10.5,10.5c0,5.8,4.7,10.5,10.5,10.5c5.8,0,10.5-4.7,10.5-10.5
	C69,52.3,64.3,47.6,58.5,47.6"/>
<path class="st2" d="M64.8,58.1c0,3.5-2.9,6.4-6.4,6.4c-3.5,0-6.4-2.9-6.4-6.4c0-3.5,2.9-6.4,6.4-6.4C62,51.7,64.8,54.6,64.8,58.1"
	/>
<rect x="34.1" y="35.9" transform="matrix(0.4537 -0.8912 0.8912 0.4537 -23.7554 58.1744)" class="st0" width="2.9" height="25.2"/>
<rect x="22.9" y="21.8" transform="matrix(0.8911 -0.4538 0.4538 0.8911 -6.697 18.5784)" class="st0" width="25" height="2.9"/>
</svg>
