<?xml version="1.0" encoding="utf-8"?>
<!-- Generator: Adobe Illustrator 21.1.0, SVG Export Plug-In . SVG Version: 6.00 Build 0)  -->
<svg version="1.1" id="Layer_1" xmlns="http://www.w3.org/2000/svg" xmlns:xlink="http://www.w3.org/1999/xlink" x="0px" y="0px"
	 viewBox="0 0 72 72" style="enable-background:new 0 0 72 72;" xml:space="preserve">
<style type="text/css">
	.st0{clip-path:url(#SVGID_2_);fill:#FFFFFF;}
	.st1{clip-path:url(#SVGID_2_);fill:#333333;}
	.st2{clip-path:url(#SVGID_2_);fill:#6E6F73;}
	.st3{clip-path:url(#SVGID_2_);fill:#BA2025;}
</style>
<g>
	<defs>
		<rect id="SVGID_1_" x="1.3" y="2" width="69.5" height="67.9"/>
	</defs>
	<clipPath id="SVGID_2_">
		<use xlink:href="#SVGID_1_"  style="overflow:visible;"/>
	</clipPath>
	<path class="st0" d="M56,67.7c0,0.5-0.4,0.9-0.9,0.9H3.6c-0.5,0-0.9-0.4-0.9-0.9V46.4c0-0.5,0.4-0.9,0.9-0.9h51.6
		c0.5,0,0.9,0.4,0.9,0.9V67.7z"/>
	<path class="st1" d="M55.2,69.9H3.6c-1.2,0-2.2-1-2.2-2.2V46.4c0-1.2,1-2.2,2.2-2.2h51.6c1.2,0,2.2,1,2.2,2.2v21.2
		C57.4,68.9,56.4,69.9,55.2,69.9"/>
	<rect x="4.1" y="46.9" class="st0" width="50.5" height="20.2"/>
	<rect x="7" y="50" class="st1" width="4" height="2.8"/>
	<rect x="13.8" y="50" class="st1" width="4" height="2.8"/>
	<rect x="20.6" y="50" class="st1" width="4" height="2.8"/>
	<rect x="27.3" y="50" class="st1" width="4" height="2.8"/>
	<rect x="34.1" y="50" class="st1" width="4" height="2.8"/>
	<rect x="40.9" y="50" class="st1" width="4" height="2.8"/>
	<rect x="47.6" y="50" class="st1" width="4" height="2.8"/>
	<rect x="7" y="55.7" class="st1" width="4" height="2.8"/>
	<rect x="13.8" y="55.7" class="st1" width="4" height="2.8"/>
	<rect x="20.6" y="55.7" class="st1" width="4" height="2.8"/>
	<rect x="27.3" y="55.7" class="st1" width="4" height="2.8"/>
	<rect x="34.1" y="55.7" class="st1" width="4" height="2.8"/>
	<rect x="40.9" y="55.7" class="st1" width="4" height="2.8"/>
	<rect x="47.6" y="55.7" class="st1" width="4" height="2.8"/>
	<rect x="7" y="61.3" class="st1" width="4" height="2.8"/>
	<rect x="13.8" y="61.3" class="st1" width="4" height="2.8"/>
	<rect x="20.6" y="61.3" class="st1" width="24.4" height="2.8"/>
	<rect x="47.6" y="61.3" class="st1" width="4" height="2.8"/>
	<rect x="25.9" y="20.7" class="st2" width="1.4" height="2.8"/>
	<rect x="36" y="36.4" class="st2" width="2.8" height="2.8"/>
	<rect x="30.3" y="36.4" class="st2" width="2.8" height="2.8"/>
	<rect x="24.7" y="36.4" class="st1" width="2.8" height="2.8"/>
	<rect x="19.1" y="36.4" class="st1" width="2.8" height="2.8"/>
	<path class="st1" d="M16.2,39.2h-2.5c-0.1,0-0.2,0-0.4,0l0.1-2.8c0.1,0,0.2,0,0.3,0h2.5V39.2z"/>
	<path class="st1" d="M10.2,38.5c-1-0.4-1.9-1-2.8-1.8l1.9-2c0.6,0.5,1.2,1,1.9,1.3L10.2,38.5z"/>
	<path class="st1" d="M5.4,34.1c-0.5-1-0.8-2.1-0.9-3.2l2.8-0.3c0.1,0.8,0.3,1.5,0.6,2.2L5.4,34.1z"/>
	<path class="st1" d="M7.5,28.3l-2.7-0.7c0.3-1.1,0.8-2.1,1.4-3l2.3,1.6C8,26.9,7.7,27.6,7.5,28.3"/>
	<path class="st1" d="M10.1,24.6l-1.6-2.3c0.9-0.6,1.9-1.1,3-1.3l0.7,2.7C11.4,23.8,10.7,24.2,10.1,24.6"/>
	<rect x="20.3" y="20.7" class="st2" width="2.8" height="2.8"/>
	<rect x="14.7" y="20.7" class="st1" width="2.8" height="2.8"/>
	<rect x="41.6" y="36.4" class="st2" width="1.4" height="2.8"/>
	<rect x="29.5" y="35.8" class="st2" width="1.4" height="2.8"/>
	<path class="st1" d="M62.5,52.4h-1.7v-2.8h1.7c0.3,0,0.5,0,0.8-0.1l0.4,2.7C63.3,52.4,62.9,52.4,62.5,52.4"/>
	<path class="st1" d="M66.8,51.2l-1.4-2.4c0.6-0.4,1.2-0.9,1.6-1.5l2.2,1.6C68.5,49.9,67.7,50.6,66.8,51.2"/>
	<path class="st1" d="M70.6,46l-2.7-0.6c0.1-0.4,0.1-0.8,0.1-1.3c0-0.3,0-0.6-0.1-0.9l2.7-0.4c0.1,0.4,0.1,0.9,0.1,1.4
		C70.8,44.7,70.7,45.4,70.6,46"/>
	<path class="st1" d="M67.2,41.1c-0.4-0.6-0.9-1.2-1.5-1.6l1.6-2.3c0.9,0.6,1.7,1.4,2.3,2.4L67.2,41.1z"/>
	<path class="st1" d="M63.6,38.7c-0.4-0.1-0.8-0.1-1.2-0.1h-1.3v-2.8h1.3c0.6,0,1.2,0.1,1.8,0.2L63.6,38.7z"/>
	<rect x="55.7" y="35.8" class="st1" width="2.8" height="2.8"/>
	<rect x="50.2" y="35.8" class="st1" width="2.8" height="2.8"/>
	<rect x="44.7" y="35.8" class="st2" width="2.8" height="2.8"/>
	<rect x="39.2" y="35.8" class="st2" width="2.8" height="2.8"/>
	<rect x="33.6" y="35.8" class="st2" width="2.8" height="2.8"/>
	<rect x="56.6" y="49.6" class="st1" width="1.4" height="2.8"/>
	<path class="st0" d="M39.4,3.8c-10.1-0.3-18.7,7.7-19,17.8C20,31.7,28,40.2,38.2,40.6c10.1,0.3,18.7-7.7,19-17.8
		C57.5,12.6,49.5,4.1,39.4,3.8"/>
	<path class="st1" d="M38.8,42L38.8,42c-0.2,0-0.4,0-0.6,0C27.2,41.6,18.6,32.4,19,21.5c0.4-11,9.4-19.5,20.4-19.1
		c5.3,0.2,10.2,2.4,13.8,6.3c3.6,3.9,5.5,8.9,5.3,14.2C58.2,33.6,49.5,42,38.8,42"/>
	<path class="st0" d="M38.8,5.2c-9.2,0-16.7,7.2-17,16.5c-0.3,9.4,7.1,17.3,16.5,17.6c9.5,0.3,17.3-7,17.6-16.5
		c0.1-4.5-1.5-8.9-4.6-12.2c-3.1-3.3-7.3-5.2-11.9-5.4C39.1,5.2,38.9,5.2,38.8,5.2"/>
	<path class="st3" d="M55.4,17.9l-1.5,2.6l-2.6,5l-1.5-3.2l-2.4,1.5l-1.5-2.9l-1.4,1.7l-0.7-0.2l-2.2-0.9l0.4,2.3l1.7,0.7l-3.1,7.1
		l-1.3,0.8L38,29.6l-0.6-4.5L35.2,25l-0.9-1.7l1.3-3.4l1.8-0.4l1.1,0.8l2.7-0.6L38.4,18L36,17.5l-0.1-0.8l2.4-1.3l-1-1.6l2.5-2.1
		l2.6,1l4.4-1.2c0,0,1.8-0.9,3.8-1.9C52.9,11.8,54.6,14.7,55.4,17.9"/>
	<path class="st3" d="M28.4,8.5l-1,1.7l-1.8,3.1c0,0.1,0,0.2,0,0.3l1.1,1.9c0,0.1,0.2,0.1,0.2,0.1c0.1,0,0.2,0,0.2-0.1l1.1-1.6
		l2,2.5l-4,3.4l-2.2,0.1c-0.1,0-0.2,0.1-0.2,0.2l-0.5,1.3c0,0.1,0,0.2,0,0.3l1.4,1.9l-2.4-1.2l-0.7-0.8
		C21.8,16.2,24.4,11.5,28.4,8.5"/>
	<path class="st3" d="M27.2,29.5l-1.4-3l1.7-3.5l4.5,4.4l-4.2,8l-0.7-1.9l0.2-3.8C27.3,29.6,27.2,29.5,27.2,29.5"/>
	<path class="st3" d="M31.7,13.4l-1.8-4.1c2.9-1.3,4.7-1.6,5.5-1.6l-1,3.7L31.7,13.4z"/>
</g>
</svg>
