<?xml version="1.0" encoding="utf-8"?>
<!-- Generator: Adobe Illustrator 21.1.0, SVG Export Plug-In . SVG Version: 6.00 Build 0)  -->
<svg version="1.1" id="Layer_1" xmlns="http://www.w3.org/2000/svg" xmlns:xlink="http://www.w3.org/1999/xlink" x="0px" y="0px"
	 viewBox="0 0 423 123" style="enable-background:new 0 0 423 123;" xml:space="preserve">
<style type="text/css">
	.st0{fill:#BC0000;}
	.st1{fill:#333333;}
	.st2{fill:#919191;}
</style>
<path class="st0" d="M73.1,85.2c0.1,5.2-0.8,10.4-3,15.6c-5.8,13.3-19,22.5-33.6,22.5c-31,0-46.2-38.3-30.1-62.6
	c1.8-2.7,4.1-4.8,6.3-7C16.4,50,16.1,41.5,16,40c0.1,1.5,1.1,9.6,7.8,5.9c7.4-4.1-7.4-18.8-7.4-18.8c8.2,1.6,11.1,8.2,11.1,8.2
	s0-4.9-2-9c-4-7.9,3.3-13.1,3.3-13.1s-4.9,9.8,4.1,4.9s0.8-18,0.8-18c11.5,5.7,7.4,16.4,7.4,16.4s-6.6,9-2.5,13.1s7.4-9,7.4-9
	c4.9,7.4-2.5,12.3-1.6,18.8S54,54.1,54,43.4s6.1-13.5,6.1-13.5c-3.3,13.1,1.6,22.9,1.6,22.9C67.9,62.7,72.9,73.9,73.1,85.2z
	 M56.9,18c-4.1,2.5-2.5,10.7-2.5,10.7C54.5,24.6,56.9,18,56.9,18z M52.4,79.7c0-8.6-7-15.6-15.6-15.6c-8.6,0-15.6,7-15.6,15.6
	c0,5.4,2.8,10.2,7,13L24.5,110H50l-3.8-17.8C49.9,89.3,52.4,84.8,52.4,79.7z"/>
<g>
	<path class="st1" d="M92.4,67.9h-9.3v-4.4h23.8v4.4h-9.3v23.6h-5.2V67.9z"/>
	<path class="st1" d="M129,72.3c1.6,1.6,2.4,3.9,2.4,7v12.2h-5V79.9c0-1.9-0.4-3.3-1.3-4.2c-0.9-0.9-2.1-1.4-3.8-1.4
		c-1.8,0-3.3,0.6-4.4,1.7c-1.1,1.1-1.6,2.7-1.6,4.8v10.8h-5V61.9h5v10.8c0.8-0.9,1.8-1.6,3.1-2c1.2-0.5,2.6-0.7,4.1-0.7
		C125.2,69.9,127.3,70.7,129,72.3z"/>
	<path class="st1" d="M158,82.5h-16.8c0.3,1.6,1.1,2.8,2.3,3.7c1.2,0.9,2.8,1.4,4.6,1.4c2.3,0,4.3-0.8,5.8-2.3l2.7,3.1
		c-1,1.1-2.2,2-3.6,2.6c-1.5,0.6-3.1,0.9-5,0.9c-2.3,0-4.4-0.5-6.2-1.4c-1.8-0.9-3.2-2.2-4.1-3.9c-1-1.7-1.5-3.6-1.5-5.7
		c0-2.1,0.5-4,1.4-5.6c0.9-1.7,2.3-3,3.9-3.9c1.7-0.9,3.6-1.4,5.7-1.4c2.1,0,3.9,0.5,5.6,1.4c1.6,0.9,2.9,2.2,3.8,3.9
		c0.9,1.7,1.4,3.6,1.4,5.8C158,81.3,158,81.8,158,82.5z M143.2,75.4c-1.1,0.9-1.8,2.2-2,3.8h12.1c-0.2-1.5-0.9-2.8-2-3.8
		s-2.5-1.4-4.1-1.4C145.6,73.9,144.3,74.4,143.2,75.4z"/>
	<path class="st1" d="M175.2,69.9v4.8c-0.4-0.1-0.8-0.1-1.2-0.1c-1.9,0-3.5,0.6-4.6,1.7c-1.1,1.1-1.6,2.8-1.6,4.9v10.4h-5V70.2h4.8
		v3.1C169,71.1,171.6,69.9,175.2,69.9z"/>
	<path class="st1" d="M212.8,72.3c1.6,1.6,2.4,3.9,2.4,7v12.2h-5V79.9c0-1.9-0.4-3.3-1.2-4.2c-0.8-0.9-2-1.4-3.6-1.4
		c-1.7,0-3,0.6-4,1.7c-1,1.1-1.5,2.7-1.5,4.7v10.8h-5V79.9c0-1.9-0.4-3.3-1.2-4.2c-0.8-0.9-2-1.4-3.6-1.4c-1.7,0-3.1,0.5-4.1,1.6
		c-1,1.1-1.5,2.7-1.5,4.8v10.8h-5V70.2h4.8v2.7c0.8-1,1.8-1.7,3-2.2c1.2-0.5,2.5-0.8,4-0.8c1.6,0,3,0.3,4.3,0.9
		c1.2,0.6,2.2,1.5,2.9,2.7c0.9-1.1,2-2,3.4-2.6c1.4-0.6,2.9-0.9,4.6-0.9C209.1,69.9,211.2,70.7,212.8,72.3z"/>
	<path class="st1" d="M225.5,90.4c-1.7-0.9-3.1-2.2-4.1-3.9c-1-1.7-1.5-3.6-1.5-5.7c0-2.1,0.5-4,1.5-5.6c1-1.7,2.3-2.9,4.1-3.9
		c1.7-0.9,3.7-1.4,5.8-1.4c2.2,0,4.1,0.5,5.9,1.4c1.7,0.9,3.1,2.2,4.1,3.9c1,1.7,1.5,3.5,1.5,5.6c0,2.1-0.5,4-1.5,5.7
		c-1,1.7-2.3,3-4.1,3.9c-1.7,0.9-3.7,1.4-5.9,1.4C229.2,91.8,227.3,91.3,225.5,90.4z M235.9,85.7c1.2-1.2,1.8-2.8,1.8-4.8
		s-0.6-3.6-1.8-4.8c-1.2-1.2-2.7-1.8-4.6-1.8s-3.4,0.6-4.5,1.8c-1.2,1.2-1.8,2.8-1.8,4.8s0.6,3.6,1.8,4.8s2.7,1.8,4.5,1.8
		S234.7,86.9,235.9,85.7z"/>
	<path class="st2" d="M250.5,91c-2-0.6-3.6-1.4-4.8-2.4l1.8-4c1.1,0.9,2.6,1.6,4.2,2.2c1.7,0.6,3.3,0.9,5,0.9c2.1,0,3.6-0.3,4.7-1
		c1-0.7,1.5-1.5,1.5-2.6c0-0.8-0.3-1.5-0.9-2c-0.6-0.5-1.3-0.9-2.2-1.2c-0.9-0.3-2.1-0.6-3.6-1c-2.1-0.5-3.9-1-5.2-1.5
		c-1.3-0.5-2.5-1.3-3.4-2.4c-0.9-1.1-1.4-2.5-1.4-4.4c0-1.5,0.4-3,1.3-4.2s2.1-2.3,3.8-3s3.8-1.1,6.2-1.1c1.7,0,3.4,0.2,5,0.6
		c1.7,0.4,3.1,1,4.3,1.8l-1.6,4c-1.2-0.7-2.5-1.3-3.8-1.6c-1.3-0.4-2.6-0.6-3.9-0.6c-2.1,0-3.6,0.3-4.6,1c-1,0.7-1.5,1.6-1.5,2.8
		c0,0.8,0.3,1.5,0.9,2c0.6,0.5,1.3,0.9,2.2,1.2c0.9,0.3,2.1,0.6,3.6,1c2.1,0.5,3.8,1,5.1,1.5c1.3,0.5,2.5,1.3,3.4,2.4
		c0.9,1.1,1.4,2.5,1.4,4.3c0,1.5-0.4,2.9-1.3,4.2c-0.8,1.3-2.1,2.3-3.8,3c-1.7,0.7-3.8,1.1-6.2,1.1C254.6,91.9,252.5,91.6,250.5,91z
		"/>
	<path class="st2" d="M292.7,82.5H276c0.3,1.6,1.1,2.8,2.3,3.7c1.2,0.9,2.8,1.4,4.6,1.4c2.3,0,4.3-0.8,5.8-2.3l2.7,3.1
		c-1,1.1-2.2,2-3.6,2.6c-1.5,0.6-3.1,0.9-5,0.9c-2.3,0-4.4-0.5-6.2-1.4c-1.8-0.9-3.2-2.2-4.1-3.9c-1-1.7-1.5-3.6-1.5-5.7
		c0-2.1,0.5-4,1.4-5.6c0.9-1.7,2.3-3,3.9-3.9c1.7-0.9,3.6-1.4,5.7-1.4c2.1,0,3.9,0.5,5.6,1.4c1.6,0.9,2.9,2.2,3.8,3.9
		c0.9,1.7,1.4,3.6,1.4,5.8C292.8,81.3,292.8,81.8,292.7,82.5z M277.9,75.4c-1.1,0.9-1.8,2.2-2,3.8H288c-0.2-1.5-0.9-2.8-2-3.8
		s-2.5-1.4-4.1-1.4C280.4,73.9,279,74.4,277.9,75.4z"/>
	<path class="st2" d="M301.4,90.4c-1.8-0.9-3.1-2.2-4.1-3.9c-1-1.7-1.5-3.6-1.5-5.7c0-2.1,0.5-4,1.5-5.6c1-1.7,2.4-2.9,4.1-3.9
		c1.7-0.9,3.7-1.4,6-1.4c2.1,0,4,0.4,5.5,1.3c1.6,0.9,2.8,2.1,3.6,3.7l-3.8,2.2c-0.6-1-1.4-1.7-2.3-2.2c-0.9-0.5-1.9-0.7-3-0.7
		c-1.9,0-3.4,0.6-4.6,1.8c-1.2,1.2-1.8,2.8-1.8,4.9c0,2,0.6,3.6,1.8,4.9c1.2,1.2,2.8,1.8,4.7,1.8c1.1,0,2.1-0.2,3-0.7
		c0.9-0.5,1.7-1.2,2.3-2.2l3.8,2.2c-0.8,1.6-2,2.8-3.6,3.7c-1.6,0.9-3.4,1.3-5.5,1.3C305.2,91.8,303.2,91.3,301.4,90.4z"/>
	<path class="st2" d="M341.5,70.2v21.4h-4.8v-2.7c-0.8,1-1.8,1.7-3,2.2s-2.5,0.8-3.9,0.8c-2.9,0-5.1-0.8-6.7-2.4
		c-1.6-1.6-2.5-3.9-2.5-7.1V70.2h5v11.5c0,1.9,0.4,3.4,1.3,4.3c0.9,0.9,2.1,1.4,3.7,1.4c1.8,0,3.2-0.6,4.3-1.7s1.6-2.7,1.6-4.8V70.2
		H341.5z"/>
	<path class="st2" d="M360.4,69.9v4.8c-0.4-0.1-0.8-0.1-1.2-0.1c-1.9,0-3.5,0.6-4.6,1.7c-1.1,1.1-1.6,2.8-1.6,4.9v10.4h-5V70.2h4.8
		v3.1C354.3,71.1,356.8,69.9,360.4,69.9z"/>
	<path class="st2" d="M384.5,82.5h-16.8c0.3,1.6,1.1,2.8,2.3,3.7c1.2,0.9,2.8,1.4,4.6,1.4c2.3,0,4.3-0.8,5.8-2.3l2.7,3.1
		c-1,1.1-2.2,2-3.6,2.6c-1.5,0.6-3.1,0.9-5,0.9c-2.3,0-4.4-0.5-6.2-1.4c-1.8-0.9-3.2-2.2-4.1-3.9c-1-1.7-1.5-3.6-1.5-5.7
		c0-2.1,0.5-4,1.4-5.6c0.9-1.7,2.3-3,3.9-3.9c1.7-0.9,3.6-1.4,5.7-1.4c2.1,0,3.9,0.5,5.6,1.4c1.6,0.9,2.9,2.2,3.8,3.9
		c0.9,1.7,1.4,3.6,1.4,5.8C384.6,81.3,384.5,81.8,384.5,82.5z M369.7,75.4c-1.1,0.9-1.8,2.2-2,3.8h12.1c-0.2-1.5-0.9-2.8-2-3.8
		s-2.5-1.4-4.1-1.4C372.2,73.9,370.8,74.4,369.7,75.4z"/>
	<path class="st2" d="M385,63.5h15.4v2.9h-5.8v13.7h-3.7V66.5H385V63.5z M419.1,80.1l0-10.5l-5.6,8.6h-1.7l-5.6-8.4v10.3h-3.5V63.5
		h3l7,10.6l6.9-10.6h3l0,16.6H419.1z"/>
</g>
<g>
	<path class="st0" d="M99.6,101.5c0.8,0.4,1.4,1,1.8,1.8c0.4,0.8,0.6,1.7,0.6,2.6c0,1-0.2,1.9-0.6,2.6c-0.4,0.8-1,1.4-1.8,1.8
		c-0.8,0.4-1.6,0.6-2.5,0.6c-0.8,0-1.6-0.2-2.3-0.5c-0.7-0.4-1.2-0.9-1.6-1.5v2h-1.3V96.9h1.3v6c0.4-0.6,1-1.1,1.6-1.5
		s1.4-0.5,2.2-0.5C98,100.9,98.8,101.1,99.6,101.5z M98.8,109.4c0.6-0.3,1-0.8,1.3-1.4c0.3-0.6,0.5-1.3,0.5-2c0-0.8-0.2-1.4-0.5-2
		c-0.3-0.6-0.8-1.1-1.3-1.4c-0.6-0.3-1.2-0.5-1.9-0.5c-0.7,0-1.3,0.2-1.9,0.5c-0.6,0.3-1,0.8-1.3,1.4c-0.3,0.6-0.5,1.3-0.5,2
		c0,0.8,0.2,1.4,0.5,2c0.3,0.6,0.8,1.1,1.3,1.4c0.6,0.3,1.2,0.5,1.9,0.5C97.6,109.8,98.3,109.7,98.8,109.4z"/>
	<path class="st0" d="M112.9,101l-5,11.2c-0.4,0.9-0.9,1.6-1.4,2c-0.5,0.4-1.2,0.6-1.9,0.6c-0.5,0-0.9-0.1-1.3-0.2
		c-0.4-0.2-0.8-0.4-1.1-0.7l0.6-1c0.5,0.5,1.1,0.8,1.8,0.8c0.5,0,0.8-0.1,1.2-0.4c0.3-0.3,0.6-0.7,0.9-1.3l0.4-1l-4.5-10h1.4
		l3.8,8.5l3.8-8.5H112.9z"/>
	<path class="st0" d="M131.2,97.6v13.3h-1.4v-6.1h-8.3v6.1H120V97.6h1.4v5.9h8.3v-5.9H131.2z"/>
	<path class="st0" d="M136.7,110.4c-0.8-0.4-1.4-1-1.8-1.8c-0.4-0.8-0.7-1.6-0.7-2.6c0-1,0.2-1.8,0.7-2.6c0.4-0.8,1.1-1.4,1.8-1.8
		c0.8-0.4,1.6-0.6,2.6-0.6s1.8,0.2,2.6,0.6c0.8,0.4,1.4,1,1.8,1.8c0.4,0.8,0.7,1.6,0.7,2.6c0,1-0.2,1.8-0.7,2.6
		c-0.4,0.8-1,1.4-1.8,1.8c-0.8,0.4-1.6,0.7-2.6,0.7S137.5,110.8,136.7,110.4z M141.2,109.4c0.6-0.3,1-0.8,1.3-1.4
		c0.3-0.6,0.5-1.3,0.5-2c0-0.8-0.2-1.4-0.5-2c-0.3-0.6-0.8-1.1-1.3-1.4c-0.6-0.3-1.2-0.5-1.9-0.5s-1.3,0.2-1.9,0.5
		c-0.6,0.3-1,0.8-1.3,1.4s-0.5,1.3-0.5,2c0,0.8,0.2,1.4,0.5,2s0.8,1.1,1.3,1.4c0.6,0.3,1.2,0.5,1.9,0.5S140.6,109.7,141.2,109.4z"/>
	<path class="st0" d="M156.1,101v10h-1.3v-1.8c-0.4,0.6-0.8,1.1-1.5,1.4c-0.6,0.3-1.3,0.5-2.1,0.5c-1.3,0-2.3-0.4-3.1-1.1
		c-0.8-0.7-1.1-1.8-1.1-3.2V101h1.3v5.7c0,1.1,0.3,1.8,0.8,2.4c0.5,0.5,1.3,0.8,2.2,0.8c1.1,0,1.9-0.3,2.5-1
		c0.6-0.6,0.9-1.5,0.9-2.7V101H156.1z"/>
	<path class="st0" d="M160.3,110.7c-0.7-0.2-1.3-0.5-1.7-0.9l0.6-1.1c0.4,0.3,0.9,0.6,1.6,0.8c0.6,0.2,1.3,0.3,2,0.3
		c0.9,0,1.6-0.1,2-0.4c0.4-0.3,0.7-0.7,0.7-1.2c0-0.4-0.1-0.7-0.4-0.9c-0.2-0.2-0.5-0.4-0.9-0.5c-0.4-0.1-0.9-0.2-1.5-0.3
		c-0.8-0.2-1.5-0.3-2-0.5c-0.5-0.2-0.9-0.4-1.3-0.8c-0.3-0.4-0.5-0.9-0.5-1.6c0-0.8,0.3-1.5,1-2.1c0.7-0.5,1.7-0.8,2.9-0.8
		c0.6,0,1.3,0.1,1.9,0.3c0.6,0.2,1.2,0.4,1.6,0.7l-0.6,1.1c-0.8-0.6-1.8-0.9-2.9-0.9c-0.9,0-1.5,0.2-1.9,0.5
		c-0.4,0.3-0.7,0.7-0.7,1.2c0,0.4,0.1,0.7,0.4,0.9s0.6,0.4,0.9,0.5c0.4,0.1,0.9,0.2,1.5,0.3c0.8,0.2,1.4,0.3,1.9,0.5
		c0.5,0.2,0.9,0.4,1.2,0.8c0.3,0.4,0.5,0.9,0.5,1.5c0,0.9-0.4,1.6-1.1,2.1c-0.7,0.5-1.7,0.8-3,0.8C161.8,111,161,110.9,160.3,110.7z
		"/>
	<path class="st0" d="M177.9,106.4h-8.4c0.1,1,0.5,1.9,1.2,2.5s1.6,1,2.7,1c0.6,0,1.2-0.1,1.7-0.3c0.5-0.2,1-0.5,1.3-1l0.8,0.9
		c-0.4,0.5-1,0.9-1.7,1.2c-0.7,0.3-1.4,0.4-2.2,0.4c-1,0-1.9-0.2-2.7-0.7c-0.8-0.4-1.4-1-1.9-1.8c-0.4-0.8-0.7-1.6-0.7-2.6
		c0-1,0.2-1.8,0.6-2.6c0.4-0.8,1-1.4,1.7-1.8c0.7-0.4,1.6-0.6,2.5-0.6s1.8,0.2,2.5,0.6s1.3,1,1.7,1.8c0.4,0.8,0.6,1.6,0.6,2.6
		L177.9,106.4z M170.6,103c-0.7,0.6-1,1.4-1.1,2.4h7.1c-0.1-1-0.5-1.8-1.1-2.4s-1.5-0.9-2.4-0.9C172.1,102,171.3,102.3,170.6,103z"
		/>
	<path class="st0" d="M183.2,110.2c-1.1-0.6-1.9-1.4-2.5-2.4c-0.6-1-0.9-2.2-0.9-3.5s0.3-2.4,0.9-3.5c0.6-1,1.4-1.8,2.5-2.4
		c1.1-0.6,2.3-0.9,3.6-0.9c1,0,1.9,0.2,2.7,0.5c0.8,0.3,1.5,0.8,2.1,1.4l-0.9,0.9c-1-1.1-2.3-1.6-3.9-1.6c-1.1,0-2,0.2-2.9,0.7
		s-1.5,1.1-2,2s-0.7,1.8-0.7,2.8s0.2,2,0.7,2.8s1.2,1.5,2,2s1.8,0.7,2.9,0.7c1.6,0,2.9-0.5,3.9-1.6l0.9,0.9
		c-0.6,0.6-1.3,1.1-2.1,1.5c-0.8,0.3-1.8,0.5-2.7,0.5C185.4,111.1,184.2,110.8,183.2,110.2z"/>
	<path class="st0" d="M195.4,110.4c-0.8-0.4-1.4-1-1.8-1.8c-0.4-0.8-0.7-1.6-0.7-2.6c0-1,0.2-1.8,0.7-2.6c0.4-0.8,1.1-1.4,1.8-1.8
		c0.8-0.4,1.6-0.6,2.6-0.6s1.8,0.2,2.6,0.6c0.8,0.4,1.4,1,1.8,1.8c0.4,0.8,0.7,1.6,0.7,2.6c0,1-0.2,1.8-0.7,2.6
		c-0.4,0.8-1,1.4-1.8,1.8c-0.8,0.4-1.6,0.7-2.6,0.7S196.1,110.8,195.4,110.4z M199.9,109.4c0.6-0.3,1-0.8,1.3-1.4
		c0.3-0.6,0.5-1.3,0.5-2c0-0.8-0.2-1.4-0.5-2c-0.3-0.6-0.8-1.1-1.3-1.4c-0.6-0.3-1.2-0.5-1.9-0.5s-1.3,0.2-1.9,0.5
		c-0.6,0.3-1,0.8-1.3,1.4s-0.5,1.3-0.5,2c0,0.8,0.2,1.4,0.5,2s0.8,1.1,1.3,1.4c0.6,0.3,1.2,0.5,1.9,0.5S199.3,109.7,199.9,109.4z"/>
	<path class="st0" d="M221.2,102c0.7,0.7,1.1,1.8,1.1,3.2v5.8h-1.3v-5.7c0-1-0.3-1.8-0.8-2.4c-0.5-0.5-1.2-0.8-2.1-0.8
		c-1,0-1.9,0.3-2.5,1c-0.6,0.6-0.9,1.5-0.9,2.7v5.2h-1.3v-5.7c0-1-0.2-1.8-0.8-2.4c-0.5-0.5-1.2-0.8-2.1-0.8c-1,0-1.8,0.3-2.4,1
		c-0.6,0.6-0.9,1.5-0.9,2.7v5.2h-1.3v-10h1.3v1.8c0.4-0.6,0.8-1.1,1.5-1.4c0.6-0.3,1.4-0.5,2.2-0.5c0.8,0,1.6,0.2,2.2,0.5
		c0.6,0.4,1.1,0.9,1.4,1.6c0.4-0.7,0.9-1.2,1.6-1.5s1.5-0.6,2.4-0.6C219.5,100.9,220.5,101.2,221.2,102z"/>
	<path class="st0" d="M223.6,97.6h7v0.9h-2.9v7h-1v-7h-3V97.6z M239.8,105.5l0-6.1l-3.2,5.1h-0.5l-3.2-5v6h-1v-7.9h0.9l3.6,5.7
		l3.6-5.7h0.8l0,7.9H239.8z"/>
</g>
</svg>
